<svg width="128" height="128" viewBox="0 0 128 128" fill="none" xmlns="http://www.w3.org/2000/svg">
<g clip-path="url(#clip0_2_2)">
<path d="M18.5 108.5C21.7 107.7 30.5 105.833 34.5 105C35.3333 100.833 37.5 90.3 39.5 81.5C42 70.5 51.5 49 53 45C54.2 41.8 53.5 38.6667 53 37.5C52 35.8333 49.9 32.3 49.5 31.5C49 30.5 49 26 49.5 24.5C49.9 23.3 48.6667 18.3333 48 16C47 14.5 45.2 10.9 46 8.5C47 5.5 49 6 51.5 6C53.5 6 59 9.66667 61.5 11.5C62 11.1667 63.7 10.5 66.5 10.5H74.5C75.6667 9.83333 78.9 8 82.5 6C87 3.5 90 5 91 7.5C92 10 89.5 14.5 87.5 16C85.5 17.5 86 25.5 86.5 29C87 32.5 85 34.5 84 37C83 39.5 85 40.5 85 42C85 43.2 84.3333 45.8333 84 47C84.5 47.3333 85.9 48.8 87.5 52C89.5 56 99 94.5 99.5 100C99.9 104.4 99.3333 110.833 99 113.5C97.4 119.1 85.6667 121.167 80 121.5C74.5 121.833 62.2 122.3 57 121.5C50.5 120.5 46 122.5 44.5 122.5C43 122.5 40 123 38 122.5C36.4 122.1 32 119.333 30 118L16.5 116.5C13.5 116.833 7 117.3 5 116.5C2.5 115.5 0.499999 113.5 3.5 111C6.5 108.5 14.5 109.5 18.5 108.5Z" fill="#D9D9D9" stroke="black" stroke-width="0.5"/>
<path d="M57.5 32C56.7 32.4 54.8333 34.1667 54 35C53.8898 35.1096 52.5 35 52 33.5C51.5 32 51.5 29 51.5 28C51.5 27 57.5 28 58 28C58.5 28 58.5 31.5 57.5 32Z" fill="black" fill-opacity="0.75"/>
<path d="M76.5 30C75.7 29.2 76.1667 27.6667 76.5 27C78.3333 26.8333 82.2 26.6 83 27C84 27.5 84 29 84.5 29.5C85 30 84 32.5 83.5 33.5C83 34.5 80 34.5 79.5 33.5C79 32.5 77.5 31 76.5 30Z" fill="black" fill-opacity="0.75"/>
<path d="M52 10C54 10.4 56.5 15.8333 57.5 18.5L50.5 20C49.6667 18 48 13.6 48 12C48 10 49.5 9.5 52 10Z" fill="black" fill-opacity="0.5"/>
<path d="M57.5 18.5C56.3333 15.8333 53.6 10.4 52 10C50.4 9.6 49 10.1667 48.5 10.5" stroke="black" stroke-width="0.5" stroke-linecap="round"/>
<path d="M83 10.5C81.4 11.7 81.3333 15.6667 81.5 17.5L83.5 18C83.8333 17.5 84.6 16.3 85 15.5C85.5 14.5 88.5 8 87 8C85.5 8 85 9 83 10.5Z" fill="black" fill-opacity="0.5"/>
<path d="M81.5 17.5C81.3333 15.3333 81.8534 11.11 84 9.5C86 8 86.5 8 87.5 8.5" stroke="black" stroke-width="0.5" stroke-linecap="round"/>
<path d="M46.5 16C47 15.5 58 16 60.5 16L67 17.5L73.0009 16.1488C75.5012 16.1488 87.5 15.781 88.0001 16.2645C88.5001 16.7479 88.0001 22.5496 87.5 24C86.9999 25.4504 86.4999 28.3512 84.4996 28.8347C82.4993 29.3182 75.5012 28.719 73.0009 28.719C70.5005 28.719 68.5002 21.4669 68.0001 20.9835C67.6001 20.5967 67.1667 20.5 67 20.5H66.5C66.3333 20.5 65.9 20.6 65.5 21C65 21.5 63 29 60.5 29C58 29 52 29.5 50 29C48 28.5 47.5 25.5 47 24C46.5 22.5 46 16.5 46.5 16Z" fill="#FF0000" stroke="black" stroke-width="0.5"/>
<path d="M62.5 17.5C61.3 17.1 53.3333 17 49.5 17C47.9 16.9939 47.5 17.9974 47.5 18.5C47.5 19.5 47.6 22.1 48 24.5C48.4 26.9 49.5 27.5 50 27.5H60.5C61.5 27.5 64 23 64 22C64 21 64 18 62.5 17.5Z" fill="black" stroke="black" stroke-width="0.5"/>
<path d="M71.5 17.5238C72.7 17.1048 80.6667 17 84.5 17C86.1 16.9936 86.5 18.045 86.5 18.5715C86.5 19.6191 86.4 22.3429 86 24.8572C85.6 27.3714 84.5 28 84 28H73.5C72.5 28 70 23.2857 70 22.2381C70 21.1905 70 18.0476 71.5 17.5238Z" fill="black" stroke="black" stroke-width="0.5"/>
<path d="M67 31V34M67 34C65.6667 34.1667 62.7 34.3 61.5 33.5M67 34C68.8333 34.1667 72.6 34.2 73 33" stroke="black" stroke-width="0.5"/>
<path d="M63 28C63.4 26.4 65.8333 25.6667 67 25.5C69 24.9229 71.5 27 71.5 29C71.5 31 68 31.5 66.5 31.5C65 31.5 62.5 30 63 28Z" fill="#2B2B2B"/>
<path d="M43.5 116C44.7 117.6 45.3333 120.333 45.5 121.5V122C45.5 124 39.5 124 38 123.5C36.5 123 33.5 119 33 118C32.5 117 36.5 113.5 37.5 113.5C38.5 113.5 42 114 43.5 116Z" fill="#D9D9D9"/>
<path d="M88 116C89.2 115.6 94.1667 114.167 96.5 113.5C101.688 112 101 116.5 101.5 118C102 119.5 86 124 85.5 122.5C85 121 86.5 116.5 88 116Z" fill="#D9D9D9"/>
<path d="M43.5 116C44.7 117.6 45.3333 120.333 45.5 121.5V122C45.5 124 39.5 124 38 123.5C36.5 123 33.5 119 33 118C32.5 117 36.5 113.5 37.5 113.5C38.5 113.5 42 114 43.5 116Z" stroke="black" stroke-width="0.6" stroke-linecap="round"/>
<path d="M88 116C89.2 115.6 94.1667 114.167 96.5 113.5C101.688 112 101 116.5 101.5 118C102 119.5 86 124 85.5 122.5C85 121 86.5 116.5 88 116Z" stroke="black" stroke-width="0.6" stroke-linecap="round"/>
<path d="M44 120.5C44 119.7 41.6667 117.167 40.5 116C38 114 36.5 117 36 118.5C35.5 120 39 122 40.5 122.5C42 123 44 121.5 44 120.5Z" fill="#0D0D0D"/>
<path d="M89 118C90.6 116.4 94.3333 115.667 96 115.5C97 116.333 98.4 118.237 96 119.188C93 120.375 88 121.5 87 121.5C86 121.5 87 120 89 118Z" fill="#0D0D0D"/>
<path d="M26 113C26 111.8 27.3333 108.167 28 106.5L24 107.5C23.5 108.333 22.4 110.3 22 111.5C21.6 112.7 22.1667 115.667 22.5 117L26 117.5V113Z" fill="black" fill-opacity="0.75"/>
<path d="M16 113C16 112.2 17.3333 109.667 18 108.5L14.5 109L12.5 113C12.1 113.8 13 116 13.5 117L16.5 116.5C16.3333 115.667 16 113.8 16 113Z" fill="black" fill-opacity="0.75"/>
<path d="M61 43.5C62.6 44.3 67 45.5 69 46C69.3333 46 70.4 45.8 72 45C74 44 75 44 79.5 42C84 40 82.5 42 83.5 45C84.5 48 82.5 54.5 82 56.5C81.5 58.5 79 55.5 76.5 54.5C74 53.5 72 51 71 51C70 51 67 51 63.5 53C60 55 56 56 54 55.5C52 55 53 52 53 49C53 46 55 41.5 55.5 41C56 40.5 59 42.5 61 43.5Z" fill="#FF0000"/>
<path d="M102 58L39 53L36.5 91.5C57.5 93 99.8 96 101 96C102.2 96 102.167 70.6667 102 58Z" fill="#F6B57A" stroke="black" stroke-width="0.5"/>
<path d="M36 62C36.4 61.6 38.8333 62.1667 40 62.5C40.1667 65.8333 40.3 72.6 39.5 73C38.5 73.5 36 73.1875 35.5 72.5C35 71.8125 34 69.5 34 68C34 66.5 35.5 62.5 36 62Z" fill="#D9D9D9"/>
<path d="M106.5 69.5C107.3 71.1 106.833 73.8333 106.5 75C105.7 77.4 103.167 78.3333 102 78.5C101.667 77.3333 100.9 74.9 100.5 74.5C100 74 98 66.5 100 66.5C102 66.5 105.5 67.5 106.5 69.5Z" fill="#D9D9D9"/>
<path d="M36 62C36.4 61.6 38.8333 62.1667 40 62.5C40.1667 65.8333 40.3 72.6 39.5 73C38.5 73.5 36 73.1875 35.5 72.5C35 71.8125 34 69.5 34 68C34 66.5 35.5 62.5 36 62Z" stroke="black" stroke-width="0.5"/>
<path d="M106.5 69.5C107.3 71.1 106.833 73.8333 106.5 75C105.7 77.4 103.167 78.3333 102 78.5C101.667 77.3333 100.9 74.9 100.5 74.5C100 74 98 66.5 100 66.5C102 66.5 105.5 67.5 106.5 69.5Z" stroke="black" stroke-width="0.5"/>
<path d="M54.4887 61.6467L54.5379 60.867L59.9816 61.2103L59.9325 61.99L57.6501 61.8461L57.2416 68.3247L56.3627 68.2693L56.7711 61.7907L54.4887 61.6467ZM61.81 65.325L61.6035 68.5997L60.7671 68.547L61.2247 61.2886L62.0611 61.3414L61.8931 64.0065L61.964 64.011C62.1093 63.7379 62.3148 63.5267 62.5804 63.3774C62.8485 63.2259 63.1964 63.1636 63.624 63.1906C63.995 63.2139 64.3152 63.3088 64.5846 63.4753C64.8541 63.6393 65.0561 63.8786 65.1905 64.1931C65.3273 64.5054 65.381 64.8954 65.3515 65.3632L65.1334 68.8223L64.297 68.7695L64.5115 65.3672C64.5388 64.9348 64.4477 64.5934 64.2381 64.343C64.031 64.0903 63.7302 63.9516 63.3356 63.9267C63.0616 63.9094 62.8122 63.9518 62.5875 64.0539C62.3652 64.1561 62.1845 64.3143 62.0452 64.5285C61.9084 64.7429 61.8299 65.0083 61.81 65.325ZM66.6636 68.9187L67.0068 63.475L67.8432 63.5277L67.5 68.9715L66.6636 68.9187ZM67.4893 62.5945C67.3263 62.5842 67.1892 62.5199 67.0781 62.4014C66.9693 62.283 66.9198 62.1459 66.9297 61.9899C66.9395 61.834 67.0058 61.7041 67.1286 61.6004C67.2537 61.4968 67.3978 61.4501 67.5608 61.4604C67.7239 61.4707 67.8598 61.535 67.9685 61.6534C68.0797 61.7719 68.1303 61.9091 68.1205 62.065C68.1106 62.221 68.0432 62.3507 67.918 62.4543C67.7953 62.5581 67.6523 62.6048 67.4893 62.5945ZM73.1543 65.0866L72.3895 65.2519C72.3502 65.1237 72.2881 64.9976 72.2034 64.8737C72.1213 64.7475 72.0046 64.6405 71.8536 64.5527C71.7026 64.4649 71.5054 64.4133 71.262 64.398C70.9289 64.377 70.6464 64.4363 70.4147 64.5759C70.1854 64.7132 70.0634 64.8988 70.0486 65.1328C70.0355 65.3407 70.1008 65.5097 70.2444 65.6397C70.388 65.7697 70.618 65.885 70.9342 65.9856L71.7298 66.235C72.209 66.3839 72.5603 66.5875 72.7836 66.8459C73.007 67.1019 73.1068 67.4202 73.0828 67.8006C73.0631 68.1124 72.9558 68.3856 72.7607 68.62C72.568 68.8545 72.3077 69.0326 71.9798 69.1543C71.6519 69.2759 71.2765 69.3234 70.8535 69.2968C70.2983 69.2618 69.8463 69.1123 69.4977 68.8484C69.149 68.5844 68.9408 68.2178 68.8732 67.7486L69.6796 67.6002C69.7367 67.898 69.8658 68.1267 70.0668 68.2865C70.2702 68.4464 70.5433 68.5371 70.8858 68.5587C71.2757 68.5833 71.5904 68.5201 71.83 68.3692C72.0722 68.216 72.2006 68.0225 72.2154 67.7886C72.2273 67.5995 72.1711 67.4371 72.0468 67.3011C71.9227 67.1629 71.7256 67.0532 71.4556 66.9721L70.5617 66.7022C70.0706 66.5527 69.7159 66.3465 69.4976 66.0836C69.2819 65.8186 69.1859 65.4982 69.2095 65.1226C69.2289 64.8154 69.3323 64.5491 69.5197 64.3237C69.7094 64.0985 69.9585 63.928 70.2671 63.8122C70.578 63.6966 70.9249 63.6509 71.3076 63.675C71.8463 63.709 72.2618 63.8538 72.5541 64.1094C72.8487 64.3652 73.0488 64.6909 73.1543 65.0866ZM77.0531 69.5738L77.3963 64.1301L78.2328 64.1828L77.8895 69.6265L77.0531 69.5738ZM77.8788 63.2496C77.7158 63.2393 77.5787 63.1749 77.4676 63.0564C77.3588 62.9381 77.3094 62.8009 77.3192 62.645C77.329 62.489 77.3953 62.3592 77.5181 62.2555C77.6432 62.1519 77.7873 62.1052 77.9504 62.1155C78.1134 62.1258 78.2493 62.1901 78.3581 62.3084C78.4692 62.4269 78.5198 62.5641 78.51 62.7201C78.5002 62.876 78.4327 63.0058 78.3076 63.1094C78.1848 63.2131 78.0419 63.2599 77.8788 63.2496ZM83.5438 65.7417L82.779 65.9069C82.7397 65.7787 82.6777 65.6527 82.593 65.5287C82.5108 65.4026 82.3942 65.2956 82.2431 65.2078C82.0921 65.12 81.8949 65.0684 81.6516 65.0531C81.3184 65.0321 81.036 65.0913 80.8042 65.2309C80.5749 65.3683 80.4529 65.5539 80.4382 65.7878C80.425 65.9957 80.4903 66.1647 80.6339 66.2947C80.7775 66.4248 81.0075 66.5401 81.3237 66.6407L82.1193 66.8901C82.5986 67.0389 82.9498 67.2425 83.1731 67.501C83.3966 67.757 83.4963 68.0752 83.4723 68.4556C83.4527 68.7675 83.3453 69.0406 83.1502 69.275C82.9575 69.5096 82.6972 69.6877 82.3693 69.8094C82.0414 69.931 81.666 69.9785 81.2431 69.9518C80.6878 69.9168 80.2359 69.7673 79.8872 69.5034C79.5385 69.2395 79.3304 68.8729 79.2627 68.4037L80.0691 68.2553C80.1262 68.553 80.2553 68.7818 80.4564 68.9415C80.6598 69.1014 80.9328 69.1922 81.2754 69.2138C81.6652 69.2383 81.98 69.1752 82.2196 69.0242C82.4617 68.8711 82.5901 68.6775 82.6049 68.4436C82.6168 68.2546 82.5606 68.0921 82.4364 67.9562C82.3122 67.8179 82.1151 67.7082 81.8451 67.6272L80.9512 67.3573C80.4601 67.2077 80.1054 67.0015 79.8872 66.7387C79.6714 66.4736 79.5754 66.1533 79.5991 65.7776C79.6184 65.4705 79.7218 65.2042 79.9092 64.9788C80.0989 64.7535 80.3481 64.583 80.6566 64.4673C80.9675 64.3517 81.3144 64.3059 81.6972 64.3301C82.2359 64.364 82.6513 64.5088 82.9436 64.7645C83.2382 65.0203 83.4383 65.346 83.5438 65.7417ZM55.1429 80.2162L53.6158 72.8327L54.5089 72.889L55.6531 78.8962L55.7239 78.9007L57.6419 73.0866L58.6342 73.1491L59.8067 79.1581L59.8776 79.1626L61.7672 73.3467L62.6603 73.403L60.218 80.5362L59.3107 80.479L58.0735 74.594L58.0168 74.5904L56.0501 80.2734L55.1429 80.2162ZM64.2273 77.5012L64.0208 80.7759L63.1844 80.7232L63.6421 73.4649L64.4785 73.5176L64.3104 76.1828L64.3813 76.1873C64.5266 75.9141 64.7321 75.7029 64.9977 75.5536C65.2658 75.4021 65.6137 75.3398 66.0413 75.3668C66.4123 75.3902 66.7325 75.4851 67.0019 75.6515C67.2714 75.8156 67.4734 76.0549 67.6078 76.3693C67.7446 76.6816 67.7983 77.0716 67.7688 77.5395L67.5507 80.9985L66.7143 80.9458L66.9289 77.5434C66.9561 77.111 66.865 76.7696 66.6554 76.5192C66.4484 76.2666 66.1475 76.1278 65.753 76.1029C65.4789 76.0857 65.2295 76.1281 65.0048 76.2301C64.7825 76.3323 64.6018 76.4906 64.4625 76.7048C64.3257 76.9191 64.2473 77.1846 64.2273 77.5012ZM70.6748 81.3236C70.3298 81.3018 70.0209 81.2171 69.7479 81.0694C69.4751 80.9194 69.2638 80.7151 69.114 80.4566C68.9644 80.1957 68.9008 79.8881 68.9232 79.5337C68.9428 79.2218 69.0202 78.9728 69.1553 78.7868C69.2905 78.5985 69.4644 78.4553 69.677 78.3572C69.8895 78.2591 70.1215 78.1907 70.3731 78.152C70.6271 78.1111 70.8815 78.082 71.1364 78.0649C71.4699 78.0432 71.7401 78.0282 71.947 78.0199C72.1564 78.0094 72.3101 77.98 72.408 77.9316C72.5083 77.8834 72.5627 77.7919 72.5712 77.6572L72.573 77.6289C72.595 77.2792 72.5165 77.0014 72.3373 76.7956C72.1605 76.59 71.8795 76.475 71.4944 76.4507C71.0951 76.4255 70.7765 76.4932 70.5387 76.6538C70.3008 76.8143 70.1296 76.9909 70.0249 77.1836L69.2489 76.85C69.4115 76.5281 69.6168 76.2825 69.8647 76.1131C70.1151 75.9415 70.3832 75.8279 70.669 75.7724C70.9573 75.7147 71.2385 75.6945 71.5125 75.7117C71.6874 75.7228 71.8869 75.7567 72.111 75.8135C72.3377 75.8681 72.5533 75.966 72.7579 76.1069C72.9649 76.2481 73.1311 76.4519 73.2566 76.7184C73.3822 76.9849 73.4313 77.3343 73.404 77.7667L73.1779 81.3533L72.3415 81.3006L72.388 80.5634L72.3454 80.5607C72.2813 80.6753 72.1788 80.7957 72.038 80.922C71.8972 81.0484 71.7139 81.1519 71.4882 81.2325C71.2626 81.3132 70.9914 81.3435 70.6748 81.3236ZM70.8498 80.5803C71.1805 80.6011 71.4634 80.5537 71.6985 80.4381C71.9358 80.3226 72.1189 80.1657 72.2476 79.9674C72.3787 79.7693 72.4514 79.5569 72.4657 79.33L72.514 78.5645C72.4759 78.6048 72.3954 78.6389 72.2727 78.6667C72.1525 78.6923 72.0136 78.7132 71.856 78.7294C71.7009 78.7433 71.5496 78.7551 71.4019 78.7648C71.2567 78.7723 71.1389 78.7791 71.0483 78.7852C70.8292 78.7999 70.6231 78.8331 70.43 78.885C70.2395 78.9347 70.0824 79.0185 69.9587 79.1364C69.8376 79.2521 69.7703 79.4163 69.7569 79.6289C69.7386 79.9195 69.8322 80.1461 70.0378 80.3085C70.246 80.4687 70.5166 80.5593 70.8498 80.5803ZM77.4152 76.1551L77.3705 76.8639L74.5494 76.686L74.5941 75.9772L77.4152 76.1551ZM75.4986 74.7248L76.335 74.7776L76.0078 79.9661C75.9929 80.2024 76.016 80.3818 76.0771 80.5042C76.1407 80.6245 76.2255 80.7081 76.3317 80.7551C76.4404 80.7999 76.5561 80.8262 76.679 80.8339C76.7711 80.8397 76.847 80.8398 76.9067 80.8341C76.9665 80.826 77.0144 80.8195 77.0502 80.8146L77.173 81.5767C77.1149 81.5944 77.0345 81.6107 76.9315 81.6255C76.8284 81.6428 76.6989 81.6465 76.543 81.6366C76.3067 81.6217 76.0784 81.5563 75.8579 81.4404C75.6399 81.3247 75.463 81.1581 75.3272 80.9408C75.1939 80.7237 75.1372 80.4568 75.1571 80.1402L75.4986 74.7248ZM82.587 74.6594L82.1294 81.9177L81.2505 81.8623L81.7081 74.6039L82.587 74.6594ZM53.4787 92.1351L53.9363 84.8768L58.2885 85.1512L58.2393 85.9309L54.7661 85.7119L54.6115 88.1644L57.7586 88.3628L57.7095 89.1425L54.5623 88.9441L54.3576 92.1905L53.4787 92.1351ZM61.0276 92.7249C60.5361 92.6939 60.1123 92.5498 59.7561 92.2925C59.4022 92.0353 59.1346 91.6899 58.9532 91.2562C58.7742 90.8227 58.7024 90.3248 58.7378 89.7625C58.7736 89.1954 58.9076 88.7069 59.1398 88.2969C59.3744 87.8871 59.6834 87.5768 60.0667 87.3662C60.4524 87.1557 60.891 87.0659 61.3824 87.0969C61.8739 87.1279 62.2965 87.2719 62.6503 87.5291C63.0065 87.7864 63.2741 88.133 63.453 88.5689C63.6342 89.0049 63.707 89.5064 63.6712 90.0735C63.6358 90.6358 63.5008 91.1207 63.2664 91.5282C63.0343 91.9358 62.7254 92.2449 62.3397 92.4554C61.9564 92.666 61.519 92.7559 61.0276 92.7249ZM61.0749 91.9736C61.4482 91.9971 61.7614 91.9208 62.0145 91.7446C62.2676 91.5684 62.4618 91.328 62.5973 91.0234C62.7327 90.7188 62.8119 90.3846 62.8348 90.0208C62.8578 89.6569 62.8213 89.3142 62.7253 88.9927C62.6293 88.6711 62.467 88.4059 62.2382 88.1969C62.0094 87.988 61.7083 87.8718 61.335 87.8482C60.9617 87.8247 60.6485 87.9022 60.3952 88.0807C60.142 88.2593 59.9476 88.502 59.812 88.809C59.6765 89.1159 59.5972 89.4513 59.5743 89.8152C59.5513 90.179 59.5879 90.5206 59.684 90.8397C59.7801 91.1589 59.9426 91.4218 60.1716 91.6284C60.4005 91.835 60.7016 91.95 61.0749 91.9736ZM68.3492 90.8381L68.5521 87.6201L69.3885 87.6728L69.0453 93.1166L68.2089 93.0638L68.267 92.1424L68.2102 92.1388C68.0652 92.4072 67.8519 92.6298 67.5704 92.8065C67.289 92.9809 66.9427 93.0552 66.5316 93.0292C66.1913 93.0078 65.8936 92.9143 65.6384 92.7487C65.3833 92.5808 65.1896 92.3409 65.0575 92.029C64.9255 91.7146 64.8741 91.3259 64.9033 90.8628L65.1214 87.4038L65.9578 87.4565L65.7433 90.8589C65.7183 91.2558 65.8093 91.5794 66.0165 91.8297C66.2261 92.0801 66.5045 92.2163 66.8519 92.2382C67.0598 92.2513 67.2746 92.2114 67.4963 92.1187C67.7204 92.0261 67.9126 91.8745 68.0729 91.664C68.2357 91.4537 68.3277 91.1784 68.3492 90.8381ZM71.6201 89.9911L71.4136 93.2659L70.5772 93.2131L70.9204 87.7694L71.7285 87.8204L71.6749 88.6709L71.7457 88.6754C71.8908 88.407 72.0985 88.1971 72.369 88.0458C72.6396 87.892 72.9805 87.8281 73.3916 87.8541C73.7602 87.8773 74.0779 87.9732 74.3448 88.1419C74.6119 88.3082 74.8126 88.5485 74.9469 88.863C75.0815 89.1751 75.1341 89.5627 75.1049 90.0258L74.8868 93.4849L74.0504 93.4321L74.2649 90.0298C74.2919 89.6021 74.2019 89.262 73.9948 89.0094C73.7879 88.7544 73.4907 88.6146 73.1032 88.5902C72.8362 88.5734 72.5939 88.6162 72.3764 88.7187C72.1611 88.8214 71.9863 88.98 71.8518 89.1945C71.7173 89.409 71.64 89.6745 71.6201 89.9911ZM78.4636 93.8242C78.01 93.7956 77.6167 93.6558 77.2839 93.4047C76.9511 93.1513 76.7 92.8081 76.5304 92.3752C76.361 91.9399 76.2944 91.434 76.3308 90.8574C76.3668 90.2857 76.4961 89.7957 76.7188 89.3875C76.9414 88.9793 77.2348 88.6716 77.5989 88.4645C77.963 88.2573 78.3743 88.1682 78.8327 88.1971C79.1871 88.2195 79.4633 88.2962 79.6614 88.4273C79.8621 88.5562 80.012 88.6985 80.1113 88.8542C80.2131 89.0076 80.2918 89.1336 80.3473 89.232L80.4181 89.2364L80.5871 86.5571L81.4235 86.6098L80.9658 93.8681L80.1578 93.8172L80.2105 92.9808L80.1113 92.9745C80.0436 93.0699 79.9483 93.1896 79.8253 93.3337C79.7025 93.4754 79.5323 93.5987 79.3145 93.7035C79.097 93.8061 78.8133 93.8463 78.4636 93.8242ZM78.6244 93.08C78.9599 93.1012 79.249 93.0317 79.4915 92.8714C79.7343 92.7088 79.9257 92.4754 80.0659 92.1711C80.2062 91.8644 80.2893 91.5056 80.3152 91.0944C80.3408 90.688 80.3042 90.3287 80.2053 90.0165C80.1065 89.7019 79.9467 89.4522 79.7259 89.2675C79.5052 89.0804 79.2248 88.9762 78.8845 88.9547C78.5301 88.9324 78.229 89.0047 77.9813 89.1717C77.7361 89.3366 77.5446 89.57 77.407 89.8721C77.2718 90.1719 77.1922 90.5132 77.1681 90.896C77.1436 91.2835 77.1805 91.6393 77.2787 91.9633C77.3794 92.2852 77.5408 92.5468 77.7629 92.7482C77.9876 92.9474 78.2747 93.058 78.6244 93.08Z" fill="black"/>
</g>
<defs>
<clipPath id="clip0_2_2">
<rect width="128" height="128" fill="white"/>
</clipPath>
</defs>
</svg>
