<svg width="128" height="128" viewBox="0 0 128 128" fill="none" xmlns="http://www.w3.org/2000/svg">
<g clip-path="url(#clip0_2_2)">
<path d="M18.5 108.5C21.7 107.7 30.5 105.833 34.5 105C35.3333 100.833 37.5 90.3 39.5 81.5C42 70.5 51.5 49 53 45C54.2 41.8 53.5 38.6667 53 37.5C52 35.8333 49.9 32.3 49.5 31.5C49 30.5 49 26 49.5 24.5C49.9 23.3 48.6667 18.3333 48 16C47 14.5 45.2 10.9 46 8.5C47 5.5 49 6 51.5 6C53.5 6 59 9.66667 61.5 11.5C62 11.1667 63.7 10.5 66.5 10.5H74.5C75.6667 9.83333 78.9 8 82.5 6C87 3.5 90 5 91 7.5C92 10 89.5 14.5 87.5 16C85.5 17.5 86 25.5 86.5 29C87 32.5 85 34.5 84 37C83 39.5 85 40.5 85 42C85 43.2 84.3333 45.8333 84 47C84.5 47.3333 85.9 48.8 87.5 52C89.5 56 99 94.5 99.5 100C99.9 104.4 99.3333 110.833 99 113.5C97.4 119.1 85.6667 121.167 80 121.5C74.5 121.833 62.2 122.3 57 121.5C50.5 120.5 46 122.5 44.5 122.5C43 122.5 40 123 38 122.5C36.4 122.1 32 119.333 30 118L16.5 116.5C13.5 116.833 7 117.3 5 116.5C2.5 115.5 0.499999 113.5 3.5 111C6.5 108.5 14.5 109.5 18.5 108.5Z" fill="#D9D9D9" stroke="black" stroke-width="0.5"/>
<path d="M57.5 32C56.7 32.4 54.8333 34.1667 54 35C53.8898 35.1096 52.5 35 52 33.5C51.5 32 51.5 29 51.5 28C51.5 27 57.5 28 58 28C58.5 28 58.5 31.5 57.5 32Z" fill="black" fill-opacity="0.75"/>
<path d="M76.5 30C75.7 29.2 76.1667 27.6667 76.5 27C78.3333 26.8333 82.2 26.6 83 27C84 27.5 84 29 84.5 29.5C85 30 84 32.5 83.5 33.5C83 34.5 80 34.5 79.5 33.5C79 32.5 77.5 31 76.5 30Z" fill="black" fill-opacity="0.75"/>
<path d="M52 10C54 10.4 56.5 15.8333 57.5 18.5L50.5 20C49.6667 18 48 13.6 48 12C48 10 49.5 9.5 52 10Z" fill="black" fill-opacity="0.5"/>
<path d="M57.5 18.5C56.3333 15.8333 53.6 10.4 52 10C50.4 9.6 49 10.1667 48.5 10.5" stroke="black" stroke-width="0.5" stroke-linecap="round"/>
<path d="M83 10.5C81.4 11.7 81.3333 15.6667 81.5 17.5L83.5 18C83.8333 17.5 84.6 16.3 85 15.5C85.5 14.5 88.5 8 87 8C85.5 8 85 9 83 10.5Z" fill="black" fill-opacity="0.5"/>
<path d="M81.5 17.5C81.3333 15.3333 81.8534 11.11 84 9.5C86 8 86.5 8 87.5 8.5" stroke="black" stroke-width="0.5" stroke-linecap="round"/>
<path d="M46.5 16C47 15.5 58 16 60.5 16L67 17.5L73.0009 16.1488C75.5012 16.1488 87.5 15.781 88.0001 16.2645C88.5001 16.7479 88.0001 22.5496 87.5 24C86.9999 25.4504 86.4999 28.3512 84.4996 28.8347C82.4993 29.3182 75.5012 28.719 73.0009 28.719C70.5005 28.719 68.5002 21.4669 68.0001 20.9835C67.6001 20.5967 67.1667 20.5 67 20.5H66.5C66.3333 20.5 65.9 20.6 65.5 21C65 21.5 63 29 60.5 29C58 29 52 29.5 50 29C48 28.5 47.5 25.5 47 24C46.5 22.5 46 16.5 46.5 16Z" fill="#FF0000" stroke="black" stroke-width="0.5"/>
<path d="M62.5 17.5C61.3 17.1 53.3333 17 49.5 17C47.9 16.9939 47.5 17.9974 47.5 18.5C47.5 19.5 47.6 22.1 48 24.5C48.4 26.9 49.5 27.5 50 27.5H60.5C61.5 27.5 64 23 64 22C64 21 64 18 62.5 17.5Z" fill="black" stroke="black" stroke-width="0.5"/>
<path d="M71.5 17.5238C72.7 17.1048 80.6667 17 84.5 17C86.1 16.9936 86.5 18.045 86.5 18.5715C86.5 19.6191 86.4 22.3429 86 24.8572C85.6 27.3714 84.5 28 84 28H73.5C72.5 28 70 23.2857 70 22.2381C70 21.1905 70 18.0476 71.5 17.5238Z" fill="black" stroke="black" stroke-width="0.5"/>
<path d="M67 31V34M67 34C65.6667 34.1667 62.7 34.3 61.5 33.5M67 34C68.8333 34.1667 72.6 34.2 73 33" stroke="black" stroke-width="0.5"/>
<path d="M63 28C63.4 26.4 65.8333 25.6667 67 25.5C69 24.9229 71.5 27 71.5 29C71.5 31 68 31.5 66.5 31.5C65 31.5 62.5 30 63 28Z" fill="#2B2B2B"/>
<path d="M43.5 116C44.7 117.6 45.3333 120.333 45.5 121.5V122C45.5 124 39.5 124 38 123.5C36.5 123 33.5 119 33 118C32.5 117 36.5 113.5 37.5 113.5C38.5 113.5 42 114 43.5 116Z" fill="#D9D9D9"/>
<path d="M88 116C89.2 115.6 94.1667 114.167 96.5 113.5C101.688 112 101 116.5 101.5 118C102 119.5 86 124 85.5 122.5C85 121 86.5 116.5 88 116Z" fill="#D9D9D9"/>
<path d="M43.5 116C44.7 117.6 45.3333 120.333 45.5 121.5V122C45.5 124 39.5 124 38 123.5C36.5 123 33.5 119 33 118C32.5 117 36.5 113.5 37.5 113.5C38.5 113.5 42 114 43.5 116Z" stroke="black" stroke-width="0.6" stroke-linecap="round"/>
<path d="M88 116C89.2 115.6 94.1667 114.167 96.5 113.5C101.688 112 101 116.5 101.5 118C102 119.5 86 124 85.5 122.5C85 121 86.5 116.5 88 116Z" stroke="black" stroke-width="0.6" stroke-linecap="round"/>
<path d="M44 120.5C44 119.7 41.6667 117.167 40.5 116C38 114 36.5 117 36 118.5C35.5 120 39 122 40.5 122.5C42 123 44 121.5 44 120.5Z" fill="#0D0D0D"/>
<path d="M89 118C90.6 116.4 94.3333 115.667 96 115.5C97 116.333 98.4 118.237 96 119.188C93 120.375 88 121.5 87 121.5C86 121.5 87 120 89 118Z" fill="#0D0D0D"/>
<path d="M26 113C26 111.8 27.3333 108.167 28 106.5L24 107.5C23.5 108.333 22.4 110.3 22 111.5C21.6 112.7 22.1667 115.667 22.5 117L26 117.5V113Z" fill="black" fill-opacity="0.75"/>
<path d="M16 113C16 112.2 17.3333 109.667 18 108.5L14.5 109L12.5 113C12.1 113.8 13 116 13.5 117L16.5 116.5C16.3333 115.667 16 113.8 16 113Z" fill="black" fill-opacity="0.75"/>
<path d="M61 43.5C62.6 44.3 67 45.5 69 46C69.3333 46 70.4 45.8 72 45C74 44 75 44 79.5 42C84 40 82.5 42 83.5 45C84.5 48 82.5 54.5 82 56.5C81.5 58.5 79 55.5 76.5 54.5C74 53.5 72 51 71 51C70 51 67 51 63.5 53C60 55 56 56 54 55.5C52 55 53 52 53 49C53 46 55 41.5 55.5 41C56 40.5 59 42.5 61 43.5Z" fill="#FF0000"/>
<path d="M102 58L39 53L36.5 91.5C57.5 93 99.8 96 101 96C102.2 96 102.167 70.6667 102 58Z" fill="#F6B57A" stroke="black" stroke-width="0.5"/>
<path d="M36 62C36.4 61.6 38.8333 62.1667 40 62.5C40.1667 65.8333 40.3 72.6 39.5 73C38.5 73.5 36 73.1875 35.5 72.5C35 71.8125 34 69.5 34 68C34 66.5 35.5 62.5 36 62Z" fill="#D9D9D9"/>
<path d="M106.5 69.5C107.3 71.1 106.833 73.8333 106.5 75C105.7 77.4 103.167 78.3333 102 78.5C101.667 77.3333 100.9 74.9 100.5 74.5C100 74 98 66.5 100 66.5C102 66.5 105.5 67.5 106.5 69.5Z" fill="#D9D9D9"/>
<path d="M36 62C36.4 61.6 38.8333 62.1667 40 62.5C40.1667 65.8333 40.3 72.6 39.5 73C38.5 73.5 36 73.1875 35.5 72.5C35 71.8125 34 69.5 34 68C34 66.5 35.5 62.5 36 62Z" stroke="black" stroke-width="0.5"/>
<path d="M106.5 69.5C107.3 71.1 106.833 73.8333 106.5 75C105.7 77.4 103.167 78.3333 102 78.5C101.667 77.3333 100.9 74.9 100.5 74.5C100 74 98 66.5 100 66.5C102 66.5 105.5 67.5 106.5 69.5Z" stroke="black" stroke-width="0.5"/>
<path d="M48.2152 67.7556L48.6729 60.4973L49.5518 60.5527L49.348 63.7849L53.2182 64.0289L53.422 60.7967L54.3009 60.8521L53.8433 68.1104L52.9643 68.055L53.169 64.8086L49.2989 64.5646L49.0942 67.811L48.2152 67.7556ZM57.6939 68.4671C57.2024 68.4361 56.7786 68.2919 56.4224 68.0346C56.0686 67.7775 55.8009 67.4321 55.6195 66.9984C55.4405 66.5649 55.3687 66.0669 55.4041 65.5046C55.4399 64.9376 55.5739 64.449 55.8061 64.0391C56.0407 63.6292 56.3497 63.319 56.733 63.1083C57.1187 62.8978 57.5573 62.808 58.0487 62.839C58.5402 62.87 58.9628 63.0141 59.3166 63.2712C59.6728 63.5285 59.9404 63.8751 60.1193 64.311C60.3005 64.7471 60.3733 65.2486 60.3375 65.8157C60.3021 66.378 60.1671 66.8629 59.9327 67.2703C59.7006 67.6779 59.3917 67.987 59.006 68.1975C58.6227 68.4082 58.1853 68.498 57.6939 68.4671ZM57.7412 67.7157C58.1145 67.7392 58.4277 67.6629 58.6808 67.4867C58.9339 67.3105 59.1281 67.0702 59.2636 66.7656C59.399 66.461 59.4782 66.1268 59.5011 65.7629C59.5241 65.3991 59.4876 65.0564 59.3916 64.7348C59.2956 64.4133 59.1333 64.148 58.9045 63.9391C58.6757 63.7302 58.3746 63.6139 58.0013 63.5904C57.628 63.5668 57.3148 63.6443 57.0615 63.8229C56.8083 64.0014 56.6139 64.2442 56.4783 64.5511C56.3428 64.8581 56.2635 65.1935 56.2406 65.5573C56.2176 65.9212 56.2542 66.2627 56.3503 66.5819C56.4464 66.9011 56.6089 67.164 56.8379 67.3705C57.0668 67.5771 57.3679 67.6922 57.7412 67.7157ZM62.4926 68.6558L61.1772 63.1074L62.0562 63.1629L62.97 67.4049L63.0267 67.4085L64.452 63.3139L65.3451 63.3702L66.2315 67.5963L66.2882 67.5999L67.7267 63.5204L68.6057 63.5758L66.6038 68.915L65.7816 68.8631L64.8544 64.606L64.7694 64.6006L63.3149 68.7076L62.4926 68.6558ZM78.4438 64.6515L77.5649 64.5961C77.5288 64.34 77.4519 64.1122 77.334 63.9126C77.2185 63.7132 77.0727 63.5427 76.8966 63.4011C76.723 63.2574 76.5272 63.1454 76.3093 63.0652C76.0914 62.9851 75.8619 62.9374 75.6209 62.9222C75.1814 62.8945 74.7763 62.9804 74.4055 63.18C74.0371 63.3798 73.7342 63.6892 73.4966 64.1083C73.2614 64.5276 73.124 65.0515 73.0844 65.68C73.0448 66.3085 73.1153 66.8455 73.2959 67.2909C73.479 67.7366 73.7407 68.0816 74.0811 68.3261C74.4239 68.5707 74.815 68.7068 75.2544 68.7345C75.4954 68.7497 75.7291 68.7312 75.9553 68.6791C76.1816 68.6269 76.3898 68.5416 76.5799 68.4231C76.7726 68.3024 76.9387 68.1504 77.0784 67.9671C77.2205 67.7815 77.3255 67.5652 77.3933 67.318L78.2722 67.3734C78.1827 67.7402 78.0412 68.0646 77.8479 68.3465C77.6546 68.6285 77.4215 68.864 77.1487 69.0532C76.8759 69.24 76.5744 69.3764 76.244 69.4623C75.916 69.5484 75.5688 69.5798 75.2026 69.5567C74.5836 69.5177 74.0426 69.3318 73.5797 68.999C73.1167 68.6662 72.7646 68.2122 72.5233 67.6372C72.2821 67.0622 72.1855 66.3919 72.2338 65.6264C72.2821 64.8608 72.462 64.208 72.7736 63.6678C73.0852 63.1276 73.4915 62.7215 73.9926 62.4495C74.4937 62.1774 75.0537 62.0609 75.6728 62.1C76.039 62.1231 76.3794 62.1979 76.694 62.3245C77.011 62.4512 77.293 62.6255 77.5399 62.8475C77.787 63.0671 77.9887 63.3289 78.1451 63.6329C78.3016 63.9345 78.4012 64.2741 78.4438 64.6515ZM81.03 69.9526C80.685 69.9309 80.3761 69.8462 80.1031 69.6985C79.8303 69.5484 79.619 69.3442 79.4692 69.0857C79.3196 68.8248 79.256 68.5171 79.2783 68.1627C79.298 67.8508 79.3754 67.6019 79.5104 67.4159C79.6457 67.2275 79.8196 67.0843 80.0321 66.9862C80.2447 66.8881 80.4767 66.8198 80.7282 66.781C80.9823 66.7401 81.2367 66.7111 81.4916 66.694C81.8251 66.6723 82.0953 66.6573 82.3022 66.649C82.5116 66.6385 82.6652 66.609 82.7632 66.5607C82.8635 66.5124 82.9179 66.421 82.9264 66.2863L82.9282 66.2579C82.9502 65.9082 82.8716 65.6305 82.6925 65.4247C82.5157 65.219 82.2347 65.1041 81.8496 65.0798C81.4503 65.0546 81.1317 65.1223 80.8939 65.2828C80.656 65.4434 80.4848 65.62 80.3801 65.8126L79.6041 65.479C79.7667 65.1572 79.972 64.9116 80.2199 64.7422C80.4703 64.5706 80.7384 64.457 81.0242 64.4015C81.3124 64.3438 81.5936 64.3235 81.8677 64.3408C82.0426 64.3518 82.242 64.3858 82.4662 64.4426C82.6928 64.4972 82.9085 64.595 83.1131 64.736C83.32 64.8772 83.4863 65.081 83.6118 65.3474C83.7373 65.6139 83.7865 65.9633 83.7592 66.3957L83.5331 69.9824L82.6967 69.9296L82.7431 69.1924L82.7006 69.1898C82.6365 69.3043 82.534 69.4248 82.3932 69.5511C82.2524 69.6774 82.0691 69.7809 81.8434 69.8616C81.6177 69.9422 81.3466 69.9726 81.03 69.9526ZM81.2049 69.2093C81.5357 69.2302 81.8186 69.1828 82.0536 69.0671C82.291 68.9516 82.4741 68.7948 82.6028 68.5965C82.7339 68.3984 82.8066 68.1859 82.8209 67.9591L82.8692 67.1936C82.831 67.2339 82.7506 67.2679 82.6279 67.2958C82.5077 67.3214 82.3688 67.3423 82.2112 67.3585C82.0561 67.3724 81.9047 67.3842 81.7571 67.3939C81.6119 67.4013 81.494 67.4081 81.4035 67.4143C81.1843 67.4289 80.9782 67.4622 80.7852 67.5141C80.5947 67.5637 80.4376 67.6475 80.3139 67.7655C80.1928 67.8812 80.1255 68.0453 80.1121 68.258C80.0937 68.5486 80.1874 68.7751 80.393 68.9375C80.6011 69.0977 80.8718 69.1883 81.2049 69.2093ZM86.1026 66.8566L85.8961 70.1313L85.0597 70.0786L85.4029 64.6349L86.211 64.6858L86.1573 65.5364L86.2282 65.5409C86.3732 65.2725 86.581 65.0626 86.8515 64.9112C87.1221 64.7575 87.463 64.6936 87.8741 64.7195C88.2427 64.7428 88.5604 64.8387 88.8273 65.0073C89.0944 65.1736 89.2951 65.414 89.4294 65.7285C89.5639 66.0406 89.6166 66.4282 89.5874 66.8913L89.3693 70.3503L88.5329 70.2976L88.7474 66.8953C88.7744 66.4676 88.6843 66.1275 88.4773 65.8748C88.2704 65.6198 87.9732 65.4801 87.5857 65.4557C87.3187 65.4388 87.0764 65.4817 86.8588 65.5842C86.6436 65.6869 86.4688 65.8454 86.3343 66.0599C86.1998 66.2744 86.1225 66.54 86.1026 66.8566ZM56.6473 73.0239L56.1897 80.2822L55.3108 80.2268L55.7684 72.9685L56.6473 73.0239ZM60.7589 80.5703L61.2166 73.312L62.0955 73.3674L61.8917 76.5996L65.7619 76.8436L65.9657 73.6114L66.8446 73.6668L66.387 80.9251L65.508 80.8697L65.7127 77.6233L61.8425 77.3793L61.6379 80.6257L60.7589 80.5703ZM70.3084 81.2862C69.7839 81.2532 69.3387 81.1089 68.9729 80.8533C68.6097 80.5956 68.3384 80.2511 68.1592 79.82C67.9825 79.3866 67.9118 78.8911 67.9469 78.3335C67.9821 77.7759 68.1147 77.2908 68.3447 76.8784C68.5772 76.4637 68.8841 76.1485 69.2654 75.933C69.6492 75.7152 70.0868 75.6219 70.5782 75.6528C70.8618 75.6707 71.1388 75.7356 71.4092 75.8476C71.6797 75.9595 71.9217 76.1289 72.1351 76.3559C72.3486 76.5805 72.5118 76.8707 72.6246 77.2265C72.7374 77.5823 72.7777 78.0142 72.7457 78.5222L72.7234 78.8766L68.5272 78.612L68.5727 77.889L71.9184 78.1C71.9377 77.7928 71.8936 77.5149 71.7859 77.2661C71.6806 77.0175 71.5201 76.8165 71.3045 76.6629C71.0911 76.5095 70.8333 76.4233 70.5308 76.4042C70.1977 76.3832 69.9042 76.4477 69.6504 76.5978C69.3992 76.7456 69.2003 76.9465 69.0538 77.2006C68.9073 77.4547 68.8246 77.7317 68.8057 78.0318L68.7753 78.5138C68.7494 78.9249 68.7983 79.2779 68.922 79.5727C69.0483 79.8653 69.2343 80.0941 69.4801 80.2591C69.726 80.4216 70.0179 80.5136 70.3558 80.5349C70.5755 80.5487 70.7759 80.5305 70.957 80.4803C71.1406 80.4278 71.3013 80.3431 71.4392 80.226C71.5772 80.1066 71.6876 79.9547 71.7704 79.7701L72.5641 80.0479C72.4618 80.3166 72.3036 80.5486 72.0897 80.7438C71.8759 80.9367 71.6177 81.0818 71.3151 81.1789C71.0126 81.2737 70.677 81.3095 70.3084 81.2862ZM75.136 74.1896L74.6784 81.4479L73.842 81.3952L74.2996 74.1368L75.136 74.1896ZM76.0816 83.5859L76.5535 76.1007L77.3616 76.1517L77.3071 77.0165L77.4063 77.0227C77.4737 76.9321 77.5663 76.8169 77.6843 76.6773C77.8047 76.5355 77.9713 76.4131 78.1842 76.3103C78.3996 76.2053 78.6845 76.1639 79.0389 76.1863C79.4972 76.2152 79.894 76.3552 80.2293 76.6065C80.5645 76.8577 80.8169 77.1998 80.9865 77.6327C81.1561 78.0657 81.2229 78.568 81.1868 79.1398C81.1505 79.7163 81.0209 80.2098 80.7981 80.6204C80.5755 81.0286 80.2832 81.3375 79.9213 81.5472C79.5596 81.7545 79.1518 81.8438 78.6982 81.8152C78.3485 81.7932 78.0722 81.7176 77.8692 81.5886C77.6664 81.4572 77.5129 81.3135 77.4089 81.1575C77.305 80.9991 77.2255 80.8684 77.1703 80.7653L77.0995 80.7608L76.918 83.6386L76.0816 83.5859ZM77.2042 78.8745C77.1782 79.2856 77.2156 79.652 77.3163 79.9739C77.4171 80.2934 77.5777 80.549 77.7981 80.7408C78.0186 80.9303 78.2967 81.0356 78.6322 81.0567C78.9818 81.0788 79.2795 81.005 79.525 80.8355C79.773 80.6637 79.966 80.4244 80.104 80.1176C80.2444 79.8086 80.3269 79.4604 80.3513 79.0729C80.3754 78.6901 80.3381 78.3414 80.2394 78.0268C80.1431 77.71 79.9825 77.4544 79.7575 77.2599C79.5351 77.0632 79.2467 76.9537 78.8923 76.9314C78.552 76.9099 78.2607 76.9781 78.0183 77.136C77.776 77.2915 77.5861 77.5191 77.4486 77.8189C77.3113 78.1162 77.2298 78.4681 77.2042 78.8745Z" fill="black"/>
</g>
<defs>
<clipPath id="clip0_2_2">
<rect width="128" height="128" fill="white"/>
</clipPath>
</defs>
</svg>
