<svg width="128" height="128" viewBox="0 0 128 128" fill="none" xmlns="http://www.w3.org/2000/svg">
<g clip-path="url(#clip0_2_2)">
<path d="M18.5 108.5C21.7 107.7 30.5 105.833 34.5 105C35.3333 100.833 37.5 90.3 39.5 81.5C42 70.5 51.5 49 53 45C54.2 41.8 53.5 38.6667 53 37.5C52 35.8333 49.9 32.3 49.5 31.5C49 30.5 49 26 49.5 24.5C49.9 23.3 48.6667 18.3333 48 16C47 14.5 45.2 10.9 46 8.5C47 5.5 49 6 51.5 6C53.5 6 59 9.66667 61.5 11.5C62 11.1667 63.7 10.5 66.5 10.5H74.5C75.6667 9.83333 78.9 8 82.5 6C87 3.5 90 5 91 7.5C92 10 89.5 14.5 87.5 16C85.5 17.5 86 25.5 86.5 29C87 32.5 85 34.5 84 37C83 39.5 85 40.5 85 42C85 43.2 84.3333 45.8333 84 47C84.5 47.3333 85.9 48.8 87.5 52C89.5 56 99 94.5 99.5 100C99.9 104.4 99.3333 110.833 99 113.5C97.4 119.1 85.6667 121.167 80 121.5C74.5 121.833 62.2 122.3 57 121.5C50.5 120.5 46 122.5 44.5 122.5C43 122.5 40 123 38 122.5C36.4 122.1 32 119.333 30 118L16.5 116.5C13.5 116.833 7 117.3 5 116.5C2.5 115.5 0.499999 113.5 3.5 111C6.5 108.5 14.5 109.5 18.5 108.5Z" fill="#D9D9D9" stroke="black" stroke-width="0.5"/>
<path d="M57.5 32C56.7 32.4 54.8333 34.1667 54 35C53.8898 35.1096 52.5 35 52 33.5C51.5 32 51.5 29 51.5 28C51.5 27 57.5 28 58 28C58.5 28 58.5 31.5 57.5 32Z" fill="black" fill-opacity="0.75"/>
<path d="M76.5 30C75.7 29.2 76.1667 27.6667 76.5 27C78.3333 26.8333 82.2 26.6 83 27C84 27.5 84 29 84.5 29.5C85 30 84 32.5 83.5 33.5C83 34.5 80 34.5 79.5 33.5C79 32.5 77.5 31 76.5 30Z" fill="black" fill-opacity="0.75"/>
<path d="M52 10C54 10.4 56.5 15.8333 57.5 18.5L50.5 20C49.6667 18 48 13.6 48 12C48 10 49.5 9.5 52 10Z" fill="black" fill-opacity="0.5"/>
<path d="M57.5 18.5C56.3333 15.8333 53.6 10.4 52 10C50.4 9.6 49 10.1667 48.5 10.5" stroke="black" stroke-width="0.5" stroke-linecap="round"/>
<path d="M83 10.5C81.4 11.7 81.3333 15.6667 81.5 17.5L83.5 18C83.8333 17.5 84.6 16.3 85 15.5C85.5 14.5 88.5 8 87 8C85.5 8 85 9 83 10.5Z" fill="black" fill-opacity="0.5"/>
<path d="M81.5 17.5C81.3333 15.3333 81.8534 11.11 84 9.5C86 8 86.5 8 87.5 8.5" stroke="black" stroke-width="0.5" stroke-linecap="round"/>
<path d="M46.5 16C47 15.5 58 16 60.5 16L67 17.5L73.0009 16.1488C75.5012 16.1488 87.5 15.781 88.0001 16.2645C88.5001 16.7479 88.0001 22.5496 87.5 24C86.9999 25.4504 86.4999 28.3512 84.4996 28.8347C82.4993 29.3182 75.5012 28.719 73.0009 28.719C70.5005 28.719 68.5002 21.4669 68.0001 20.9835C67.6001 20.5967 67.1667 20.5 67 20.5H66.5C66.3333 20.5 65.9 20.6 65.5 21C65 21.5 63 29 60.5 29C58 29 52 29.5 50 29C48 28.5 47.5 25.5 47 24C46.5 22.5 46 16.5 46.5 16Z" fill="#FF0000" stroke="black" stroke-width="0.5"/>
<path d="M62.5 17.5C61.3 17.1 53.3333 17 49.5 17C47.9 16.9939 47.5 17.9974 47.5 18.5C47.5 19.5 47.6 22.1 48 24.5C48.4 26.9 49.5 27.5 50 27.5H60.5C61.5 27.5 64 23 64 22C64 21 64 18 62.5 17.5Z" fill="black" stroke="black" stroke-width="0.5"/>
<path d="M71.5 17.5238C72.7 17.1048 80.6667 17 84.5 17C86.1 16.9936 86.5 18.045 86.5 18.5715C86.5 19.6191 86.4 22.3429 86 24.8572C85.6 27.3714 84.5 28 84 28H73.5C72.5 28 70 23.2857 70 22.2381C70 21.1905 70 18.0476 71.5 17.5238Z" fill="black" stroke="black" stroke-width="0.5"/>
<path d="M67 31V34M67 34C65.6667 34.1667 62.7 34.3 61.5 33.5M67 34C68.8333 34.1667 72.6 34.2 73 33" stroke="black" stroke-width="0.5"/>
<path d="M63 28C63.4 26.4 65.8333 25.6667 67 25.5C69 24.9229 71.5 27 71.5 29C71.5 31 68 31.5 66.5 31.5C65 31.5 62.5 30 63 28Z" fill="#2B2B2B"/>
<path d="M43.5 116C44.7 117.6 45.3333 120.333 45.5 121.5V122C45.5 124 39.5 124 38 123.5C36.5 123 33.5 119 33 118C32.5 117 36.5 113.5 37.5 113.5C38.5 113.5 42 114 43.5 116Z" fill="#D9D9D9"/>
<path d="M88 116C89.2 115.6 94.1667 114.167 96.5 113.5C101.688 112 101 116.5 101.5 118C102 119.5 86 124 85.5 122.5C85 121 86.5 116.5 88 116Z" fill="#D9D9D9"/>
<path d="M43.5 116C44.7 117.6 45.3333 120.333 45.5 121.5V122C45.5 124 39.5 124 38 123.5C36.5 123 33.5 119 33 118C32.5 117 36.5 113.5 37.5 113.5C38.5 113.5 42 114 43.5 116Z" stroke="black" stroke-width="0.6" stroke-linecap="round"/>
<path d="M88 116C89.2 115.6 94.1667 114.167 96.5 113.5C101.688 112 101 116.5 101.5 118C102 119.5 86 124 85.5 122.5C85 121 86.5 116.5 88 116Z" stroke="black" stroke-width="0.6" stroke-linecap="round"/>
<path d="M44 120.5C44 119.7 41.6667 117.167 40.5 116C38 114 36.5 117 36 118.5C35.5 120 39 122 40.5 122.5C42 123 44 121.5 44 120.5Z" fill="#0D0D0D"/>
<path d="M89 118C90.6 116.4 94.3333 115.667 96 115.5C97 116.333 98.4 118.237 96 119.188C93 120.375 88 121.5 87 121.5C86 121.5 87 120 89 118Z" fill="#0D0D0D"/>
<path d="M26 113C26 111.8 27.3333 108.167 28 106.5L24 107.5C23.5 108.333 22.4 110.3 22 111.5C21.6 112.7 22.1667 115.667 22.5 117L26 117.5V113Z" fill="black" fill-opacity="0.75"/>
<path d="M16 113C16 112.2 17.3333 109.667 18 108.5L14.5 109L12.5 113C12.1 113.8 13 116 13.5 117L16.5 116.5C16.3333 115.667 16 113.8 16 113Z" fill="black" fill-opacity="0.75"/>
<path d="M61 43.5C62.6 44.3 67 45.5 69 46C69.3333 46 70.4 45.8 72 45C74 44 75 44 79.5 42C84 40 82.5 42 83.5 45C84.5 48 82.5 54.5 82 56.5C81.5 58.5 79 55.5 76.5 54.5C74 53.5 72 51 71 51C70 51 67 51 63.5 53C60 55 56 56 54 55.5C52 55 53 52 53 49C53 46 55 41.5 55.5 41C56 40.5 59 42.5 61 43.5Z" fill="#FF0000"/>
<path d="M102 58L39 53L36.5 91.5C57.5 93 99.8 96 101 96C102.2 96 102.167 70.6667 102 58Z" fill="#F6B57A" stroke="black" stroke-width="0.5"/>
<path d="M36 62C36.4 61.6 38.8333 62.1667 40 62.5C40.1667 65.8333 40.3 72.6 39.5 73C38.5 73.5 36 73.1875 35.5 72.5C35 71.8125 34 69.5 34 68C34 66.5 35.5 62.5 36 62Z" fill="#D9D9D9"/>
<path d="M106.5 69.5C107.3 71.1 106.833 73.8333 106.5 75C105.7 77.4 103.167 78.3333 102 78.5C101.667 77.3333 100.9 74.9 100.5 74.5C100 74 98 66.5 100 66.5C102 66.5 105.5 67.5 106.5 69.5Z" fill="#D9D9D9"/>
<path d="M36 62C36.4 61.6 38.8333 62.1667 40 62.5C40.1667 65.8333 40.3 72.6 39.5 73C38.5 73.5 36 73.1875 35.5 72.5C35 71.8125 34 69.5 34 68C34 66.5 35.5 62.5 36 62Z" stroke="black" stroke-width="0.5"/>
<path d="M106.5 69.5C107.3 71.1 106.833 73.8333 106.5 75C105.7 77.4 103.167 78.3333 102 78.5C101.667 77.3333 100.9 74.9 100.5 74.5C100 74 98 66.5 100 66.5C102 66.5 105.5 67.5 106.5 69.5Z" stroke="black" stroke-width="0.5"/>
<path d="M49.7126 60.5628L49.255 67.8211L48.376 67.7657L48.8337 60.5074L49.7126 60.5628ZM59.1006 63.432C59.0377 63.1884 58.9484 62.9681 58.8327 62.771C58.7195 62.5718 58.5798 62.3993 58.4134 62.2536C58.2494 62.108 58.0598 61.9929 57.8445 61.9081C57.6293 61.8234 57.3905 61.7728 57.1282 61.7562C56.6982 61.7291 56.3002 61.8155 55.9341 62.0154C55.5681 62.2153 55.2675 62.5249 55.0323 62.9442C54.7971 63.3634 54.6597 63.8873 54.6201 64.5158C54.5805 65.1443 54.6522 65.6814 54.8352 66.127C55.0182 66.5726 55.2823 66.9178 55.6274 67.1626C55.9725 67.4073 56.3696 67.5438 56.8185 67.5721C57.2343 67.5984 57.6061 67.5328 57.9339 67.3756C58.2642 67.2161 58.5282 66.979 58.726 66.6641C58.9263 66.347 59.0404 65.9663 59.0684 65.5221L59.3342 65.5958L57.151 65.4582L57.2002 64.6785L59.9646 64.8528L59.9154 65.6325C59.8777 66.2303 59.7174 66.742 59.4343 67.1678C59.1537 67.5936 58.7824 67.9142 58.3205 68.1294C57.8611 68.3424 57.3432 68.4307 56.7666 68.3944C56.124 68.3538 55.5688 68.167 55.1012 67.8339C54.6359 67.5009 54.285 67.0471 54.0484 66.4723C53.8142 65.8978 53.7212 65.2277 53.7695 64.4622C53.8057 63.888 53.915 63.3766 54.0975 62.9279C54.2825 62.477 54.527 62.0987 54.8309 61.7929C55.1348 61.487 55.486 61.2601 55.8844 61.1121C56.2827 60.964 56.7146 60.9047 57.1801 60.934C57.5629 60.9581 57.916 61.0385 58.2395 61.1751C58.5655 61.3096 58.8518 61.4901 59.0984 61.7168C59.3476 61.9412 59.5504 62.2043 59.7069 62.5059C59.8636 62.8052 59.9639 63.1329 60.0079 63.4892L59.1006 63.432ZM63.3321 68.8225C62.8406 68.7916 62.4168 68.6474 62.0606 68.3901C61.7068 68.133 61.4391 67.7876 61.2577 67.3539C61.0787 66.9204 61.0069 66.4224 61.0424 65.8601C61.0781 65.293 61.2121 64.8045 61.4443 64.3946C61.6789 63.9847 61.9879 63.6745 62.3712 63.4638C62.7569 63.2533 63.1955 63.1635 63.6869 63.1945C64.1784 63.2255 64.601 63.3696 64.9549 63.6267C65.3111 63.884 65.5786 64.2306 65.7575 64.6665C65.9388 65.1025 66.0115 65.6041 65.9758 66.1711C65.9403 66.7335 65.8053 67.2184 65.5709 67.6258C65.3388 68.0334 65.03 68.3425 64.6443 68.553C64.2609 68.7637 63.8235 68.8535 63.3321 68.8225ZM63.3795 68.0712C63.7528 68.0947 64.066 68.0184 64.319 67.8422C64.5721 67.666 64.7663 67.4257 64.9018 67.1211C65.0372 66.8165 65.1164 66.4823 65.1393 66.1184C65.1623 65.7545 65.1258 65.4118 65.0298 65.0903C64.9339 64.7688 64.7715 64.5035 64.5427 64.2946C64.3139 64.0856 64.0129 63.9694 63.6396 63.9459C63.2662 63.9223 62.953 63.9998 62.6998 64.1784C62.4466 64.3569 62.2522 64.5997 62.1166 64.9066C61.981 65.2136 61.9017 65.549 61.8788 65.9128C61.8558 66.2767 61.8924 66.6182 61.9885 66.9374C62.0846 67.2566 62.2472 67.5195 62.4761 67.726C62.705 67.9326 63.0061 68.0477 63.3795 68.0712ZM69.7934 63.6507L69.7487 64.3595L66.9276 64.1816L66.9723 63.4728L69.7934 63.6507ZM67.8767 62.2204L68.7131 62.2732L68.386 67.4617C68.3711 67.698 68.3942 67.8774 68.4553 67.9998C68.5188 68.1201 68.6037 68.2037 68.7099 68.2507C68.8185 68.2955 68.9343 68.3218 69.0572 68.3295C69.1493 68.3354 69.2252 68.3354 69.2849 68.3297C69.3447 68.3216 69.3925 68.3151 69.4284 68.3103L69.5512 69.0723C69.4931 69.09 69.4126 69.1063 69.3097 69.1212C69.2066 69.1384 69.0771 69.1421 68.9211 69.1322C68.6849 69.1173 68.4565 69.0519 68.2361 68.936C68.0181 68.8203 67.8412 68.6538 67.7054 68.4365C67.572 68.2193 67.5153 67.9524 67.5353 67.6358L67.8767 62.2204ZM76.2259 64.0563L76.1812 64.7651L73.3601 64.5872L73.4048 63.8784L76.2259 64.0563ZM74.3093 62.626L75.1457 62.6787L74.8185 67.8673C74.8036 68.1036 74.8267 68.2829 74.8878 68.4054C74.9514 68.5256 75.0363 68.6093 75.1424 68.6563C75.2511 68.7011 75.3668 68.7274 75.4897 68.7351C75.5818 68.7409 75.6577 68.741 75.7174 68.7352C75.7772 68.7272 75.8251 68.7207 75.861 68.7158L75.9837 69.4779C75.9257 69.4956 75.8452 69.5119 75.7422 69.5267C75.6391 69.5439 75.5096 69.5476 75.3537 69.5378C75.1174 69.5229 74.8891 69.4575 74.6687 69.3416C74.4506 69.2259 74.2737 69.0593 74.138 68.842C74.0046 68.6249 73.9479 68.358 73.9678 68.0414L74.3093 62.626ZM78.3007 66.3647L78.0942 69.6394L77.2578 69.5867L77.7154 62.3284L78.5518 62.3811L78.3838 65.0463L78.4547 65.0508C78.6 64.7776 78.8055 64.5664 79.0711 64.4171C79.3392 64.2656 79.6871 64.2033 80.1147 64.2303C80.4857 64.2537 80.8058 64.3486 81.0753 64.515C81.3448 64.6791 81.5468 64.9184 81.6812 65.2328C81.818 65.5451 81.8717 65.9351 81.8422 66.403L81.6241 69.862L80.7877 69.8093L81.0022 66.4069C81.0295 65.9745 80.9383 65.6331 80.7288 65.3827C80.5217 65.1301 80.2209 64.9913 79.8263 64.9664C79.5523 64.9492 79.3029 64.9916 79.0782 65.0936C78.8559 65.1958 78.6751 65.354 78.5359 65.5683C78.399 65.7826 78.3206 66.0481 78.3007 66.3647ZM83.1543 69.9585L83.4975 64.5147L84.3339 64.5675L83.9907 70.0112L83.1543 69.9585ZM83.98 63.6343C83.817 63.624 83.6799 63.5596 83.5688 63.4411C83.46 63.3227 83.4105 63.1856 83.4204 63.0297C83.4302 62.8737 83.4965 62.7439 83.6193 62.6401C83.7444 62.5365 83.8885 62.4899 84.0515 62.5001C84.2145 62.5104 84.3504 62.5747 84.4592 62.6931C84.5704 62.8116 84.621 62.9488 84.6112 63.1047C84.6013 63.2607 84.5339 63.3905 84.4087 63.4941C84.2859 63.5978 84.143 63.6445 83.98 63.6343ZM89.645 66.1263L88.8802 66.2916C88.8409 66.1634 88.7788 66.0373 88.6941 65.9134C88.6119 65.7872 88.4953 65.6803 88.3443 65.5925C88.1933 65.5046 87.9961 65.4531 87.7527 65.4377C87.4196 65.4167 87.1371 65.476 86.9053 65.6156C86.6761 65.7529 86.5541 65.9386 86.5393 66.1725C86.5262 66.3804 86.5915 66.5494 86.7351 66.6794C86.8787 66.8095 87.1086 66.9248 87.4249 67.0254L88.2205 67.2748C88.6997 67.4236 89.051 67.6272 89.2743 67.8856C89.4977 68.1417 89.5975 68.4599 89.5735 68.8403C89.5538 69.1522 89.4465 69.4253 89.2514 69.6597C89.0587 69.8943 88.7984 70.0724 88.4705 70.194C88.1426 70.3157 87.7672 70.3632 87.3442 70.3365C86.789 70.3015 86.337 70.152 85.9884 69.8881C85.6397 69.6241 85.4315 69.2576 85.3639 68.7884L86.1703 68.64C86.2274 68.9377 86.3565 69.1664 86.5575 69.3262C86.7609 69.4861 87.0339 69.5768 87.3765 69.5984C87.7664 69.623 88.0811 69.5598 88.3207 69.4089C88.5629 69.2557 88.6913 69.0622 88.706 68.8283C88.718 68.6393 88.6618 68.4768 88.5375 68.3409C88.4134 68.2026 88.2163 68.0929 87.9463 68.0118L87.0524 67.742C86.5613 67.5924 86.2066 67.3862 85.9883 67.1234C85.7726 66.8583 85.6765 66.538 85.7002 66.1623C85.7196 65.8551 85.823 65.5889 86.0103 65.3635C86.2001 65.1382 86.4492 64.9677 86.7578 64.8519C87.0687 64.7363 87.4156 64.6906 87.7983 64.7147C88.337 64.7487 88.7525 64.8935 89.0448 65.1491C89.3394 65.4049 89.5395 65.7307 89.645 66.1263ZM48.2053 72.4916L49.2543 72.5577L51.3412 78.7382L51.4262 78.7436L54.2728 72.8742L55.3218 72.9403L54.8642 80.1986L54.042 80.1468L54.3897 74.6322L54.3188 74.6277L51.7029 79.9993L50.909 79.9492L48.9885 74.2916L48.9176 74.2871L48.5699 79.8018L47.7476 79.7499L48.2053 72.4916ZM56.9231 82.3779C56.7813 82.369 56.6557 82.3492 56.5461 82.3186C56.4364 82.2903 56.3609 82.2642 56.3198 82.2403L56.5789 81.5165C56.7788 81.5813 56.9572 81.6115 57.114 81.6072C57.2708 81.6028 57.4135 81.5418 57.5419 81.4242C57.6725 81.3091 57.7973 81.1165 57.9163 80.8465L58.0991 80.431L56.431 74.832L57.3383 74.8892L58.5675 79.322L58.6242 79.3255L60.4004 75.0823L61.3077 75.1395L58.6037 81.2314C58.482 81.506 58.3385 81.7306 58.1733 81.9053C58.008 82.0822 57.8209 82.2092 57.612 82.2862C57.4055 82.3633 57.1759 82.3939 56.9231 82.3779ZM67.2287 80.9782L64.9888 80.837L65.4464 73.5787L67.7855 73.7261C68.4896 73.7705 69.083 73.9538 69.5656 74.276C70.0483 74.5959 70.4061 75.0347 70.6389 75.5926C70.872 76.1482 70.9648 76.8016 70.9174 77.5529C70.8698 78.309 70.694 78.9515 70.3903 79.4803C70.0867 80.0067 69.6681 80.4002 69.1345 80.6607C68.6011 80.9188 67.9658 81.0247 67.2287 80.9782ZM65.9169 80.1127L67.2211 80.1949C67.8213 80.2328 68.3259 80.1483 68.7351 79.9417C69.1443 79.735 69.4592 79.4239 69.6799 79.0085C69.9006 78.5931 70.0296 78.09 70.0668 77.4993C70.1038 76.9134 70.0399 76.4029 69.8752 75.9679C69.7106 75.5305 69.4453 75.1864 69.0792 74.9356C68.7132 74.6825 68.2467 74.538 67.6797 74.5023L66.2762 74.4138L65.9169 80.1127ZM75.6197 79.2727L75.8226 76.0547L76.659 76.1074L76.3157 81.5511L75.4793 81.4984L75.5374 80.5769L75.4807 80.5734C75.3357 80.8417 75.1224 81.0643 74.8409 81.2411C74.5594 81.4155 74.2132 81.4897 73.8021 81.4638C73.4618 81.4424 73.1641 81.3489 72.9088 81.1833C72.6537 81.0154 72.4601 80.7755 72.328 80.4635C72.196 80.1492 72.1446 79.7605 72.1738 79.2974L72.3919 75.8384L73.2283 75.8911L73.0138 79.2934C72.9887 79.6904 73.0798 80.014 73.287 80.2642C73.4966 80.5147 73.775 80.6508 74.1224 80.6727C74.3303 80.6858 74.5451 80.646 74.7668 80.5532C74.9909 80.4606 75.1831 80.3091 75.3434 80.0986C75.5061 79.8882 75.5982 79.6129 75.6197 79.2727ZM79.8961 81.8907C79.4425 81.8621 79.0492 81.7223 78.7163 81.4712C78.3836 81.2178 78.1325 80.8746 77.9629 80.4416C77.7934 80.0063 77.7269 79.5004 77.7632 78.9239C77.7993 78.3522 77.9286 77.8622 78.1512 77.454C78.3739 77.0458 78.6672 76.7381 79.0314 76.531C79.3955 76.3238 79.8068 76.2347 80.2651 76.2636C80.6195 76.2859 80.8958 76.3627 81.0939 76.4938C81.2945 76.6226 81.4445 76.7649 81.5438 76.9206C81.6456 77.0741 81.7242 77.2001 81.7797 77.2985L81.8506 77.3029L82.0195 74.6236L82.8559 74.6763L82.3983 81.9346L81.5902 81.8837L81.643 81.0473L81.5438 81.041C81.4761 81.1364 81.3807 81.2561 81.2578 81.4002C81.135 81.5419 80.9647 81.6652 80.747 81.77C80.5294 81.8725 80.2458 81.9128 79.8961 81.8907ZM80.0569 81.1465C80.3924 81.1677 80.6814 81.0981 80.924 80.9379C81.1667 80.7753 81.3582 80.5419 81.4983 80.2376C81.6386 79.9309 81.7218 79.572 81.7477 79.1609C81.7733 78.7545 81.7367 78.3952 81.6377 78.083C81.539 77.7684 81.3792 77.5187 81.1584 77.334C80.9377 77.1469 80.6572 77.0427 80.317 77.0212C79.9626 76.9989 79.6615 77.0712 79.4138 77.2382C79.1685 77.4031 78.9771 77.6365 78.8394 77.9386C78.7043 78.2384 78.6247 78.5797 78.6005 78.9625C78.5761 79.35 78.613 79.7058 78.7111 80.0298C78.8118 80.3517 78.9732 80.6133 79.1954 80.8147C79.42 81.0139 79.7072 81.1245 80.0569 81.1465ZM86.3216 82.2959C85.797 82.2628 85.3519 82.1185 84.9861 81.863C84.6228 81.6052 84.3515 81.2608 84.1723 80.8296C83.9957 80.3962 83.9249 79.9007 83.9601 79.3431C83.9952 78.7855 84.1278 78.3005 84.3578 77.888C84.5903 77.4733 84.8972 77.1582 85.2785 76.9426C85.6623 76.7249 86.0999 76.6315 86.5913 76.6625C86.8749 76.6803 87.1519 76.7452 87.4224 76.8572C87.6928 76.9691 87.9348 77.1386 88.1482 77.3655C88.3618 77.5901 88.5249 77.8803 88.6377 78.2361C88.7505 78.5919 88.7909 79.0238 88.7588 79.5318L88.7365 79.8862L84.5403 79.6217L84.5859 78.8987L87.9315 79.1096C87.9509 78.8024 87.9067 78.5245 87.799 78.2757C87.6937 78.0272 87.5333 77.8261 87.3176 77.6725C87.1043 77.5191 86.8464 77.4329 86.544 77.4138C86.2108 77.3928 85.9174 77.4573 85.6636 77.6074C85.4123 77.7552 85.2134 77.9562 85.0669 78.2102C84.9204 78.4643 84.8377 78.7414 84.8188 79.0414L84.7884 79.5234C84.7625 79.9346 84.8114 80.2875 84.9352 80.5824C85.0614 80.875 85.2474 81.1037 85.4932 81.2687C85.7392 81.4313 86.0311 81.5232 86.3689 81.5445C86.5887 81.5584 86.7891 81.5402 86.9702 81.4899C87.1537 81.4374 87.3145 81.3527 87.4523 81.2356C87.5903 81.1163 87.7007 80.9643 87.7835 80.7797L88.5772 81.0575C88.4749 81.3262 88.3168 81.5582 88.1028 81.7535C87.889 81.9464 87.6308 82.0914 87.3282 82.1885C87.0257 82.2833 86.6901 82.3191 86.3216 82.2959Z" fill="black"/>
</g>
<defs>
<clipPath id="clip0_2_2">
<rect width="128" height="128" fill="white"/>
</clipPath>
</defs>
</svg>
